<?xml version="1.0" standalone="no"?>
<!DOCTYPE svg PUBLIC "-//W3C//DTD SVG 20010904//EN"
 "http://www.w3.org/TR/2001/REC-SVG-20010904/DTD/svg10.dtd">
<svg version="1.0" xmlns="http://www.w3.org/2000/svg"
 width="587.000000pt" height="587.000000pt" viewBox="0 0 587.000000 587.000000"
 preserveAspectRatio="xMidYMid meet">

<g transform="translate(0.000000,587.000000) scale(0.100000,-0.100000)"
fill="#000000" stroke="none">
<path d="M2207 4304 c-15 -8 -25 -19 -22 -23 8 -14 85 10 85 25 0 18 -28 17
-63 -2z"/>
<path d="M2307 4314 c-22 -22 2 -25 201 -24 37 0 62 -4 62 -11 0 -5 5 -7 10
-4 38 23 -28 42 -155 44 -61 2 -114 -1 -118 -5z"/>
<path d="M2610 4292 c0 -12 44 -52 58 -52 20 0 13 32 -8 37 -11 3 -20 9 -20
14 0 5 -7 9 -15 9 -8 0 -15 -4 -15 -8z"/>
<path d="M2075 4270 c-10 -17 5 -31 23 -21 9 4 24 6 32 3 11 -4 11 -2 -2 11
-19 19 -44 22 -53 7z"/>
<path d="M2027 4253 c-4 -3 -7 -11 -7 -17 0 -6 5 -5 12 2 6 6 9 14 7 17 -3 3
-9 2 -12 -2z"/>
<path d="M2710 4246 c0 -15 50 -56 68 -56 6 0 14 -9 17 -20 3 -11 11 -20 16
-20 17 0 9 17 -32 64 -40 46 -69 59 -69 32z"/>
<path d="M2453 4143 c-21 -3 -33 -10 -33 -20 0 -10 6 -14 20 -10 27 7 88 -10
122 -35 28 -20 48 -17 48 6 0 12 -27 27 -55 30 -6 1 -21 9 -35 19 -13 9 -27
16 -30 15 -3 0 -20 -3 -37 -5z"/>
<path d="M2315 4115 c-20 -16 -25 -24 -14 -25 8 0 21 6 27 12 10 10 17 10 32
0 16 -10 20 -10 20 1 0 13 -19 37 -29 37 -4 0 -19 -11 -36 -25z"/>
<path d="M2825 4120 c3 -5 8 -10 11 -10 2 0 4 5 4 10 0 6 -5 10 -11 10 -5 0
-7 -4 -4 -10z"/>
<path d="M2235 4060 c3 -5 11 -10 16 -10 6 0 7 5 4 10 -3 6 -11 10 -16 10 -6
0 -7 -4 -4 -10z"/>
<path d="M1870 4025 c0 -8 5 -15 10 -15 6 0 10 7 10 15 0 8 -4 15 -10 15 -5 0
-10 -7 -10 -15z"/>
<path d="M2186 4011 c-4 -5 -2 -12 4 -16 6 -4 8 -11 5 -16 -4 -5 6 -9 20 -9
30 0 29 16 -2 37 -13 9 -23 10 -27 4z"/>
<path d="M2544 4009 c-3 -6 -15 -8 -26 -6 -24 7 -78 -11 -78 -26 0 -7 -4 -7
-12 1 -29 29 -122 3 -103 -29 4 -6 -4 -3 -19 6 -14 9 -23 21 -20 26 3 5 -2 9
-10 9 -23 0 -29 -20 -12 -39 22 -25 20 -41 -6 -41 -22 -1 -23 -1 -4 -15 25
-19 36 -19 36 0 0 18 27 20 32 4 6 -18 179 -12 198 7 12 12 12 14 -7 14 -12 0
-25 5 -28 10 -3 6 0 10 9 10 8 0 22 3 32 7 12 4 15 3 10 -5 -8 -13 40 -16 93
-6 40 8 40 20 -1 30 -36 9 -35 9 -62 -2 -17 -7 -18 -4 -13 24 7 33 3 40 -9 21z"/>
<path d="M1910 3999 c0 -17 67 -64 100 -71 14 -3 31 -7 39 -9 7 -2 15 1 18 7
2 7 -16 17 -42 25 -25 7 -45 19 -45 25 0 6 -8 14 -17 17 -10 2 -26 8 -35 12
-12 5 -18 3 -18 -6z"/>
<path d="M2693 3983 c-31 -21 -29 -33 5 -24 15 4 28 15 30 24 4 21 -6 21 -35
0z"/>
<path d="M2105 3920 c-17 -27 37 -39 95 -20 29 9 27 11 -17 13 -17 1 -35 5
-39 10 -10 10 -32 9 -39 -3z"/>
<path d="M3202 3733 c4 -20 68 -32 68 -14 0 6 -9 11 -19 11 -11 0 -23 5 -26
10 -10 17 -27 11 -23 -7z"/>
<path d="M3275 3691 c-8 -15 3 -31 21 -31 9 0 14 7 12 17 -4 20 -24 28 -33 14z"/>
<path d="M3324 3632 c-14 -9 -45 -138 -38 -157 4 -8 18 -15 33 -15 30 0 56 45
48 85 -3 18 1 26 14 30 21 7 25 35 7 53 -13 13 -47 16 -64 4z"/>
<path d="M2838 3614 c-42 -22 -35 -50 9 -33 31 11 61 -3 73 -37 10 -26 30 -33
30 -9 0 8 -4 15 -9 15 -5 0 -11 13 -14 29 -3 15 -14 31 -24 35 -10 3 -22 8
-28 11 -5 2 -22 -3 -37 -11z"/>
<path d="M3745 3599 c-4 -6 -13 -8 -20 -5 -7 2 -30 -4 -51 -15 -21 -10 -44
-19 -51 -19 -7 0 -13 -4 -13 -10 0 -19 79 -3 100 20 3 3 23 5 45 5 30 0 40 4
43 18 3 12 -3 17 -22 17 -14 0 -28 -5 -31 -11z"/>
<path d="M3834 3573 c9 -10 23 -27 31 -38 13 -19 14 -19 20 -2 9 22 -20 57
-48 57 -19 0 -20 -1 -3 -17z"/>
<path d="M3582 3518 c5 -15 37 -18 41 -3 1 6 -9 12 -22 13 -16 3 -22 -1 -19
-10z"/>
<path d="M1882 3513 c-6 -3 -10 -9 -6 -14 3 -5 -6 -9 -20 -9 -16 0 -27 -7 -31
-20 -7 -23 -21 -26 -28 -7 -3 7 -6 6 -6 -5 -2 -28 16 -29 55 -3 45 30 91 32
144 5 43 -22 60 -25 60 -11 0 5 -11 12 -25 15 -14 4 -23 10 -21 15 3 5 0 13
-7 18 -14 12 -96 23 -115 16z"/>
<path d="M3900 3502 c0 -12 19 -26 26 -19 2 2 -2 10 -11 17 -9 8 -15 8 -15 2z"/>
<path d="M2980 3440 c-12 -8 -10 -10 8 -10 13 0 20 4 17 10 -7 12 -6 12 -25 0z"/>
<path d="M2070 3410 c0 -5 5 -10 10 -10 6 0 10 5 10 10 0 6 -4 10 -10 10 -5 0
-10 -4 -10 -10z"/>
<path d="M3370 3380 c0 -5 5 -10 11 -10 5 0 7 5 4 10 -3 6 -8 10 -11 10 -2 0
-4 -4 -4 -10z"/>
<path d="M3815 3344 c-11 -8 -25 -12 -33 -9 -16 6 -52 -15 -52 -31 0 -27 106
-47 115 -21 9 27 9 70 0 73 -5 2 -19 -3 -30 -12z"/>
<path d="M2094 3338 c-4 -7 -3 -8 4 -4 6 4 18 -6 27 -24 9 -17 21 -28 26 -24
6 4 0 18 -17 35 -32 33 -31 33 -40 17z"/>
<path d="M3394 3318 c5 -23 3 -28 -13 -28 -27 0 -49 -29 -31 -40 11 -7 11 -14
1 -37 -13 -33 -9 -78 7 -77 7 1 17 2 23 3 7 0 9 12 7 26 -3 14 1 33 8 42 7 10
14 26 14 35 0 9 4 18 8 20 5 2 12 18 15 37 5 26 4 32 -7 28 -7 -3 -19 0 -26 6
-10 10 -11 6 -6 -15z"/>
<path d="M3122 3295 c0 -16 2 -22 5 -12 2 9 2 23 0 30 -3 6 -5 -1 -5 -18z"/>
<path d="M2710 3270 c0 -5 5 -10 10 -10 6 0 10 5 10 10 0 6 -4 10 -10 10 -5 0
-10 -4 -10 -10z"/>
<path d="M2960 3259 c0 -5 5 -7 10 -4 6 3 10 8 10 11 0 2 -4 4 -10 4 -5 0 -10
-5 -10 -11z"/>
<path d="M3141 3204 c0 -26 5 -46 14 -54 12 -10 15 -9 15 7 0 10 -4 23 -9 29
-5 5 -11 20 -14 34 -3 17 -5 11 -6 -16z"/>
<path d="M3796 3231 c-4 -5 -2 -12 3 -15 5 -4 12 -2 15 3 4 5 2 12 -3 15 -5 4
-12 2 -15 -3z"/>
<path d="M2685 3220 c-3 -5 -1 -10 4 -10 6 0 11 5 11 10 0 6 -2 10 -4 10 -3 0
-8 -4 -11 -10z"/>
<path d="M2405 3209 c-11 -4 -34 -8 -51 -8 -17 -1 -37 -8 -44 -16 -7 -8 -18
-15 -25 -15 -7 0 -15 -7 -19 -15 -3 -9 -18 -15 -39 -15 -40 0 -63 -23 -65 -64
-2 -28 -1 -28 35 -23 39 7 53 20 53 53 0 23 56 52 118 61 46 7 56 6 112 -6 25
-5 66 -14 91 -20 25 -5 57 -15 71 -22 30 -13 94 -5 101 14 2 6 1 21 -4 32 -6
17 -8 17 -8 2 -1 -13 -5 -15 -18 -7 -10 5 -54 14 -98 19 -94 12 -167 25 -180
33 -6 3 -19 2 -30 -3z"/>
<path d="M3755 3190 c3 -5 8 -10 11 -10 2 0 4 5 4 10 0 6 -5 10 -11 10 -5 0
-7 -4 -4 -10z"/>
<path d="M2160 3160 c0 -5 5 -10 11 -10 5 0 7 5 4 10 -3 6 -8 10 -11 10 -2 0
-4 -4 -4 -10z"/>
<path d="M3730 3162 c0 -5 -9 -12 -21 -15 -21 -6 -18 -27 4 -27 17 0 39 37 27
45 -6 3 -10 2 -10 -3z"/>
<path d="M2956 3119 c-8 -50 -3 -59 35 -59 16 0 29 -4 29 -10 0 -5 13 -10 28
-10 16 0 32 -3 36 -7 6 -7 162 -34 281 -50 22 -3 44 -9 49 -14 6 -5 17 -9 26
-9 10 0 31 -7 49 -16 17 -9 38 -14 45 -11 7 3 18 -4 24 -14 7 -10 17 -19 24
-19 6 0 26 -11 43 -24 18 -14 44 -28 59 -32 25 -6 66 -51 66 -73 0 -6 9 -11
20 -11 11 0 20 -4 20 -9 0 -4 12 -6 28 -3 24 5 26 4 13 -12 -18 -22 -5 -34 15
-14 14 14 11 20 -35 68 -27 30 -48 57 -45 61 2 4 -9 10 -26 14 -16 4 -36 14
-42 23 -17 23 -94 72 -112 72 -8 0 -16 5 -18 10 -2 6 -16 12 -31 14 -15 1 -33
8 -39 14 -7 7 -19 12 -29 12 -9 0 -28 9 -42 20 -20 16 -34 19 -65 14 -31 -5
-40 -3 -46 11 -5 13 -13 15 -33 10 -33 -8 -80 11 -86 36 -8 28 -37 13 -37 -20
0 -19 -3 -22 -9 -12 -5 8 -15 11 -23 8 -31 -11 -112 13 -134 41 -12 15 -20 30
-17 34 2 5 0 8 -5 8 -5 0 -12 -18 -16 -41z"/>
<path d="M3300 3119 c0 -5 5 -7 10 -4 6 3 10 8 10 11 0 2 -4 4 -10 4 -5 0 -10
-5 -10 -11z"/>
<path d="M2380 2985 c0 -8 5 -15 10 -15 6 0 10 7 10 15 0 8 -4 15 -10 15 -5 0
-10 -7 -10 -15z"/>
<path d="M2467 2993 c-3 -4 -8 -27 -12 -50 -7 -45 -14 -50 -46 -33 -10 6 -19
7 -19 2 0 -9 43 -32 60 -32 9 0 35 109 27 116 -3 3 -7 2 -10 -3z"/>
<path d="M1805 2940 c-3 -5 1 -10 10 -10 9 0 13 5 10 10 -3 6 -8 10 -10 10 -2
0 -7 -4 -10 -10z"/>
<path d="M1910 2880 c0 -5 5 -10 10 -10 6 0 10 5 10 10 0 6 -4 10 -10 10 -5 0
-10 -4 -10 -10z"/>
<path d="M2220 2810 c-31 -75 19 -125 53 -52 26 58 23 79 -12 80 -23 0 -32 -5
-41 -28z"/>
<path d="M2552 2800 c-6 -11 -12 -27 -12 -36 0 -15 37 -53 53 -54 10 0 46 37
40 43 -2 3 0 15 7 26 9 17 8 21 -5 21 -8 0 -15 5 -15 10 0 19 -55 11 -68 -10z"/>
<path d="M2420 2692 c0 -5 -13 -23 -30 -42 -34 -38 -46 -68 -33 -81 19 -19 42
3 49 47 5 32 11 44 23 44 23 0 31 9 24 26 -5 15 -33 20 -33 6z"/>
<path d="M3869 2684 c-11 -14 -11 -18 2 -28 35 -26 68 -82 62 -105 -5 -20 -2
-22 18 -19 16 2 23 9 21 21 -2 9 2 17 8 17 5 0 10 5 10 11 0 7 -10 9 -25 7
-21 -5 -25 -2 -25 21 0 28 -34 91 -49 91 -5 0 -15 -7 -22 -16z"/>
<path d="M2485 2610 c3 -5 8 -10 11 -10 2 0 4 5 4 10 0 6 -5 10 -11 10 -5 0
-7 -4 -4 -10z"/>
<path d="M3956 2511 c-6 -9 46 -71 58 -71 16 0 3 35 -20 56 -28 27 -31 28 -38
15z"/>
<path d="M3997 2394 c-11 -12 -8 -24 6 -24 17 0 67 -79 60 -96 -3 -8 -16 -17
-29 -20 -28 -7 -31 -22 -8 -31 10 -4 22 1 30 12 7 10 20 15 29 12 17 -7 22 18
5 28 -5 3 -10 19 -10 36 0 16 -4 29 -10 29 -5 0 -10 10 -10 21 0 16 -5 20 -20
16 -12 -3 -23 1 -28 9 -4 8 -11 11 -15 8z"/>
<path d="M1883 2213 c-21 -7 -15 -33 7 -33 11 0 20 6 20 14 0 18 -11 25 -27
19z"/>
<path d="M1932 2154 c9 -18 16 -22 35 -18 27 7 34 -20 7 -30 -24 -9 -6 -27 21
-20 18 4 25 1 30 -15 4 -15 15 -21 36 -21 16 0 29 -4 29 -10 0 -5 11 -10 25
-10 14 0 38 -11 53 -25 28 -27 42 -31 42 -15 0 6 12 10 26 10 14 0 23 4 19 10
-3 6 -14 10 -23 10 -10 0 -23 9 -30 21 -9 13 -19 18 -32 14 -10 -3 -21 -1 -25
5 -3 5 -15 10 -26 10 -10 0 -19 5 -19 10 0 6 -9 10 -20 10 -10 0 -35 14 -54
31 -18 18 -50 37 -69 44 -35 12 -35 12 -25 -11z"/>
<path d="M4044 2145 c-24 -23 -19 -58 9 -63 24 -4 81 38 69 50 -13 13 -32 2
-32 -18 0 -8 -6 -14 -13 -14 -21 0 -28 12 -16 26 6 7 9 19 7 26 -2 9 -9 7 -24
-7z"/>
<path d="M2275 2010 c3 -5 10 -10 16 -10 5 0 9 5 9 10 0 6 -7 10 -16 10 -8 0
-12 -4 -9 -10z"/>
<path d="M4059 2002 c-22 -23 -30 -59 -15 -70 17 -14 70 -22 86 -12 11 7 11
14 0 39 -10 26 -15 29 -31 20 -20 -10 -28 4 -9 16 6 3 10 10 10 16 0 14 -23 9
-41 -9z"/>
<path d="M2192 1892 c-23 -21 -32 -37 -32 -61 0 -39 15 -46 69 -31 36 9 41 14
41 40 0 16 -10 41 -23 55 l-22 26 -33 -29z"/>
<path d="M4040 1881 c0 -6 5 -13 10 -16 6 -3 10 1 10 9 0 9 -4 16 -10 16 -5 0
-10 -4 -10 -9z"/>
<path d="M4088 1871 c23 -20 29 -41 12 -41 -5 0 -10 -7 -10 -15 0 -21 17 -19
30 5 13 24 -13 70 -39 70 -13 -1 -11 -4 7 -19z"/>
<path d="M3992 1793 c4 -22 -39 -43 -88 -43 -19 0 -34 -4 -34 -10 0 -5 -11
-10 -24 -10 -13 0 -30 -7 -37 -16 -9 -11 -23 -14 -46 -11 -18 3 -33 2 -33 -3
0 -16 -34 -20 -193 -26 -99 -3 -166 -9 -175 -16 -10 -9 -19 -9 -34 1 -15 9
-23 10 -31 2 -6 -6 -25 -11 -42 -11 -18 0 -35 -3 -39 -7 -28 -28 -150 1 -284
67 -97 48 -187 63 -214 36 -9 -9 -28 -16 -42 -16 -14 0 -36 -11 -50 -25 -14
-14 -34 -25 -45 -25 -11 0 -45 -7 -76 -15 -34 -9 -75 -12 -103 -8 -45 5 -143
49 -151 66 -5 13 -55 57 -59 52 -9 -9 11 -65 23 -65 8 0 15 -10 17 -21 2 -12
12 -27 23 -33 11 -6 23 -15 27 -21 4 -5 44 -17 88 -26 70 -13 82 -13 89 -1 6
11 10 11 16 3 4 -8 11 -9 18 -2 7 5 27 11 45 14 19 3 42 13 51 21 10 9 21 13
24 10 4 -4 9 1 13 10 4 10 13 14 24 11 9 -3 42 6 72 20 l56 25 43 -20 c24 -11
51 -24 59 -29 26 -15 111 -53 160 -71 63 -23 205 -26 244 -5 22 11 32 12 42 4
11 -9 20 -7 40 6 14 9 33 14 41 10 26 -9 203 -7 216 3 7 5 38 12 70 15 32 3
64 10 71 16 7 6 35 14 62 17 27 4 54 10 59 14 6 5 26 11 46 15 43 8 93 51 85
72 -3 8 -6 21 -6 29 0 8 -5 14 -11 14 -6 0 -9 -8 -7 -17z"/>
</g>
</svg>
